<svg xmlns="http://www.w3.org/2000/svg" viewBox="0 0 64 64" fill="none">
  <defs>
    <linearGradient id="g" x1="0" y1="0" x2="64" y2="64" gradientUnits="userSpaceOnUse">
      <stop offset="0%" stop-color="#0088FF"/>
      <stop offset="100%" stop-color="#00C853"/>
    </linearGradient>
  </defs>
  <!-- Shield -->
  <path d="M32 4L8 18v16c0 18.67 10.24 36.12 24 40 13.76-3.88 24-21.33 24-40V18L32 4z" fill="url(#g)" opacity="0.15" stroke="url(#g)" stroke-width="2"/>
  <!-- Cloud -->
  <path d="M42 30c0-3.31-2.69-6-6-6a5.99 5.99 0 0 0-5.19 3.01A4 4 0 0 0 24 30a4 4 0 0 0-4 4h0a4 4 0 0 0 4 4h18a4 4 0 0 0 4-4 4 4 0 0 0-4-4z" fill="none" stroke="url(#g)" stroke-width="2" stroke-linecap="round" stroke-linejoin="round"/>
  <!-- Lock -->
  <rect x="29" y="40" width="6" height="5" rx="1" fill="url(#g)" opacity="0.8"/>
  <path d="M30 40v-2a2 2 0 0 1 4 0v2" fill="none" stroke="url(#g)" stroke-width="1.5"/>
</svg>
